<svg width="666" height="347" viewBox="0 0 666 347" fill="none" xmlns="http://www.w3.org/2000/svg">
<path d="M6.912 100.38V28.8596H19.392L46.176 65.2436H40.224L66.432 28.8596H78.912V100.38H65.76V43.7396L70.848 44.9876L43.68 81.1796H42.144L15.648 44.9876L19.968 43.7396V100.38H6.912ZM115.16 101.532C110.04 101.532 105.368 100.348 101.144 97.9796C96.9835 95.6116 93.6555 92.3796 91.1595 88.2836C88.7275 84.1876 87.5115 79.5156 87.5115 74.2676C87.5115 69.0196 88.7275 64.3476 91.1595 60.2516C93.6555 56.1556 96.9835 52.9236 101.144 50.5556C105.304 48.1876 109.976 47.0036 115.16 47.0036C120.28 47.0036 124.92 48.1876 129.08 50.5556C133.24 52.9236 136.536 56.1556 138.968 60.2516C141.464 64.2836 142.712 68.9556 142.712 74.2676C142.712 79.5156 141.464 84.1876 138.968 88.2836C136.472 92.3796 133.144 95.6116 128.984 97.9796C124.824 100.348 120.216 101.532 115.16 101.532ZM115.16 90.0116C117.976 90.0116 120.44 89.3396 122.552 87.9956C124.728 86.6516 126.424 84.7956 127.64 82.4276C128.92 79.9956 129.56 77.2756 129.56 74.2676C129.56 71.1956 128.92 68.5076 127.64 66.2036C126.424 63.8356 124.728 61.9796 122.552 60.6356C120.44 59.2276 117.976 58.5236 115.16 58.5236C112.28 58.5236 109.752 59.2276 107.576 60.6356C105.4 61.9796 103.672 63.8356 102.392 66.2036C101.176 68.5076 100.568 71.1956 100.568 74.2676C100.568 77.2756 101.176 79.9956 102.392 82.4276C103.672 84.7956 105.4 86.6516 107.576 87.9956C109.752 89.3396 112.28 90.0116 115.16 90.0116ZM174.617 101.532C169.561 101.532 165.049 100.348 161.081 97.9796C157.113 95.5476 153.977 92.2516 151.673 88.0916C149.369 83.9316 148.217 79.3236 148.217 74.2676C148.217 69.1476 149.369 64.5396 151.673 60.4436C153.977 56.3476 157.113 53.0836 161.081 50.6516C165.113 48.2196 169.593 47.0036 174.521 47.0036C178.489 47.0036 182.009 47.8036 185.081 49.4036C188.217 50.9396 190.681 53.1156 192.473 55.9316L190.553 58.5236V27.7076H203.129V100.38H191.225V90.2996L192.569 92.7956C190.777 95.6116 188.281 97.7876 185.081 99.3236C181.881 100.796 178.393 101.532 174.617 101.532ZM175.961 90.0116C178.841 90.0116 181.369 89.3396 183.545 87.9956C185.721 86.6516 187.417 84.7956 188.633 82.4276C189.913 80.0596 190.553 77.3396 190.553 74.2676C190.553 71.2596 189.913 68.5716 188.633 66.2036C187.417 63.7716 185.721 61.8836 183.545 60.5396C181.369 59.1956 178.841 58.5236 175.961 58.5236C173.145 58.5236 170.617 59.2276 168.377 60.6356C166.137 61.9796 164.377 63.8356 163.097 66.2036C161.881 68.5076 161.273 71.1956 161.273 74.2676C161.273 77.3396 161.881 80.0596 163.097 82.4276C164.377 84.7956 166.137 86.6516 168.377 87.9956C170.617 89.3396 173.145 90.0116 175.961 90.0116ZM237.677 101.532C232.301 101.532 227.597 100.316 223.565 97.8836C219.533 95.4516 216.397 92.1556 214.157 87.9956C211.917 83.8356 210.797 79.2276 210.797 74.1716C210.797 68.9236 211.917 64.2836 214.157 60.2516C216.461 56.1556 219.565 52.9236 223.469 50.5556C227.437 48.1876 231.853 47.0036 236.717 47.0036C240.813 47.0036 244.397 47.6756 247.469 49.0196C250.605 50.3636 253.261 52.2196 255.437 54.5876C257.613 56.9556 259.277 59.6756 260.429 62.7476C261.581 65.7556 262.157 69.0196 262.157 72.5396C262.157 73.4356 262.093 74.3636 261.965 75.3236C261.901 76.2836 261.741 77.1156 261.485 77.8196H221.165V68.2196H254.381L248.429 72.7316C249.005 69.7876 248.845 67.1636 247.949 64.8596C247.117 62.5556 245.709 60.7316 243.725 59.3876C241.805 58.0436 239.469 57.3716 236.717 57.3716C234.093 57.3716 231.757 58.0436 229.709 59.3876C227.661 60.6676 226.093 62.5876 225.005 65.1476C223.981 67.6436 223.597 70.6836 223.853 74.2676C223.597 77.4676 224.013 80.3156 225.101 82.8116C226.253 85.2436 227.917 87.1316 230.093 88.4756C232.333 89.8196 234.893 90.4916 237.773 90.4916C240.653 90.4916 243.085 89.8836 245.069 88.6676C247.117 87.4516 248.717 85.8196 249.869 83.7716L260.045 88.7636C259.021 91.2596 257.421 93.4676 255.245 95.3876C253.069 97.3076 250.477 98.8116 247.469 99.8996C244.525 100.988 241.261 101.532 237.677 101.532ZM269.77 100.38V48.1556H281.578V59.7716L280.618 58.0436C281.834 54.1396 283.722 51.4196 286.282 49.8836C288.906 48.3476 292.042 47.5796 295.69 47.5796H298.762V58.7156H294.25C290.666 58.7156 287.786 59.8356 285.61 62.0756C283.434 64.2516 282.346 67.3236 282.346 71.2916V100.38H269.77ZM303.756 100.38V48.1556H315.564V58.4276L314.604 56.6036C315.82 53.4676 317.804 51.0996 320.556 49.4996C323.372 47.8356 326.636 47.0036 330.348 47.0036C334.188 47.0036 337.58 47.8356 340.524 49.4996C343.532 51.1636 345.868 53.4996 347.532 56.5076C349.196 59.4516 350.028 62.8756 350.028 66.7796V100.38H337.452V69.7556C337.452 67.4516 337.004 65.4676 336.108 63.8036C335.212 62.1396 333.964 60.8596 332.364 59.9636C330.828 59.0036 329.004 58.5236 326.892 58.5236C324.844 58.5236 323.02 59.0036 321.42 59.9636C319.82 60.8596 318.572 62.1396 317.676 63.8036C316.78 65.4676 316.332 67.4516 316.332 69.7556V100.38H303.756ZM369.085 100.38L393.757 28.8596H410.653L435.325 100.38H421.117L416.029 85.0196H388.381L383.197 100.38H369.085ZM392.125 73.4996H412.285L400.381 37.8836H404.029L392.125 73.4996ZM440.309 100.38V48.1556H452.117V59.7716L451.157 58.0436C452.373 54.1396 454.261 51.4196 456.821 49.8836C459.445 48.3476 462.581 47.5796 466.229 47.5796H469.301V58.7156H464.789C461.205 58.7156 458.325 59.8356 456.149 62.0756C453.973 64.2516 452.885 67.3236 452.885 71.2916V100.38H440.309ZM499.509 100.956C493.621 100.956 489.045 99.3556 485.781 96.1556C482.581 92.8916 480.981 88.3156 480.981 82.4276V59.3876H471.957V48.1556H472.917C475.477 48.1556 477.461 47.4836 478.869 46.1396C480.277 44.7956 480.981 42.8436 480.981 40.2836V36.2516H493.557V48.1556H505.557V59.3876H493.557V81.7556C493.557 83.4836 493.845 84.9556 494.421 86.1716C495.061 87.3876 496.021 88.3156 497.301 88.9556C498.645 89.5956 500.341 89.9156 502.389 89.9156C502.837 89.9156 503.349 89.8836 503.925 89.8196C504.565 89.7556 505.173 89.6916 505.749 89.6276V100.38C504.853 100.508 503.829 100.636 502.677 100.764C501.525 100.892 500.469 100.956 499.509 100.956ZM19.008 221.38L1.056 169.156H14.304L27.456 208.804L22.848 208.708L36.864 169.156H48L61.92 208.708L57.312 208.804L70.464 169.156H83.712L65.76 221.38H54.528L40.32 180.004H44.544L30.144 221.38H19.008ZM88.686 221.38V169.156H101.262V221.38H88.686ZM88.686 163.3V149.86H101.262V163.3H88.686ZM134.762 221.956C128.874 221.956 124.298 220.356 121.034 217.156C117.834 213.892 116.234 209.316 116.234 203.428V180.388H107.21V169.156H108.17C110.73 169.156 112.714 168.484 114.122 167.14C115.53 165.796 116.234 163.844 116.234 161.284V157.252H128.81V169.156H140.81V180.388H128.81V202.756C128.81 204.484 129.098 205.956 129.674 207.172C130.314 208.388 131.274 209.316 132.554 209.956C133.898 210.596 135.594 210.916 137.642 210.916C138.09 210.916 138.602 210.884 139.178 210.82C139.818 210.756 140.426 210.692 141.002 210.628V221.38C140.106 221.508 139.082 221.636 137.93 221.764C136.778 221.892 135.722 221.956 134.762 221.956ZM148.69 221.38V148.708H161.266V179.428L159.538 177.604C160.754 174.468 162.738 172.1 165.49 170.5C168.306 168.836 171.57 168.004 175.282 168.004C179.122 168.004 182.514 168.836 185.458 170.5C188.466 172.164 190.802 174.5 192.466 177.508C194.13 180.452 194.962 183.876 194.962 187.78V221.38H182.386V190.756C182.386 188.452 181.938 186.468 181.042 184.804C180.146 183.14 178.898 181.86 177.298 180.964C175.762 180.004 173.938 179.524 171.826 179.524C169.778 179.524 167.954 180.004 166.354 180.964C164.754 181.86 163.506 183.14 162.61 184.804C161.714 186.468 161.266 188.452 161.266 190.756V221.38H148.69ZM225.947 158.802C226.103 159.333 226.478 159.77 227.072 160.114C227.822 160.552 228.962 160.77 230.494 160.77L234.525 160.723L236.353 160.864L240.197 160.77L245.259 160.817L248.681 160.63L253.322 160.77L257.259 160.583C257.697 160.583 258.212 160.598 258.806 160.63C260.65 160.692 261.759 160.723 262.134 160.723C262.572 160.723 263.259 160.708 264.197 160.677C265.134 160.614 267.072 160.567 270.009 160.536C272.947 160.473 275.166 159.88 276.666 158.755L277.416 158.895H278.447C277.884 161.989 277.306 164.567 276.712 166.63C276.4 167.817 276.181 168.786 276.056 169.536C275.962 170.098 275.791 170.958 275.541 172.114C274.853 172.083 274.244 172.005 273.712 171.88C273.681 168.317 272.994 165.864 271.65 164.52C270.306 163.177 267.728 162.505 263.916 162.505C260.572 162.505 257.525 162.661 254.775 162.973C253.931 163.098 253.259 163.255 252.759 163.442C252.634 163.786 252.525 164.098 252.431 164.38C252.025 165.942 251.384 170.38 250.509 177.692C250.259 179.911 249.087 186.817 246.994 198.411L243.525 215.38C243.4 216.223 243.306 216.739 243.244 216.927C243.056 217.614 242.962 218.114 242.962 218.427C242.962 218.864 243.134 219.192 243.478 219.411C244.134 219.786 245.416 219.989 247.322 220.02C247.759 220.02 248.962 220.098 250.931 220.255C252.15 220.348 252.853 220.442 253.041 220.536C253.166 220.598 253.275 220.723 253.369 220.911L253.134 222.411C251.009 222.38 249.306 222.286 248.025 222.13C246.744 221.973 245.712 221.895 244.931 221.895C239.744 221.895 233.4 222.036 225.9 222.317C226.087 221.63 226.337 221.005 226.65 220.442C228.212 220.223 229.916 220.067 231.759 219.973C232.197 219.848 232.775 219.708 233.494 219.552C234.556 219.333 235.228 219.114 235.509 218.895C235.791 218.645 236.041 218.255 236.259 217.723C237.197 215.411 238.197 210.317 239.259 202.442L243.572 178.302C244.947 170.52 245.697 165.427 245.822 163.02C244.884 162.864 243.869 162.786 242.775 162.786C236.869 162.786 232.994 163.005 231.15 163.442C229.306 163.88 227.759 164.598 226.509 165.598C225.291 166.567 223.541 168.661 221.259 171.88C220.697 171.786 220.15 171.723 219.619 171.692C219.869 170.848 220.15 170.052 220.462 169.302C221.837 165.927 223.025 162.411 224.025 158.755H225.337L225.947 158.802ZM280.043 186.927C279.011 187.677 278.043 188.552 277.136 189.552C276.886 189.833 275.464 191.708 272.871 195.177L270.949 195.27C271.73 193.583 273.183 191.505 275.308 189.036C277.433 186.567 279.277 184.88 280.839 183.973C281.839 183.38 282.964 183.036 284.214 182.942C284.996 183.161 285.527 183.458 285.808 183.833C286.121 184.208 286.277 184.661 286.277 185.192C286.277 185.723 286.214 186.255 286.089 186.786C285.746 188.505 285.058 190.958 284.027 194.145C282.996 197.333 282.074 199.848 281.261 201.692L278.824 207.458L278.636 208.302C279.074 207.552 279.964 205.88 281.308 203.286C286.402 193.63 290.074 187.661 292.324 185.38C293.98 183.755 295.918 182.942 298.136 182.942C299.386 182.942 300.558 183.442 301.652 184.442C302.464 185.223 302.871 186.255 302.871 187.536C302.871 188.973 302.418 190.208 301.511 191.239C300.886 191.958 299.996 192.317 298.839 192.317C297.871 192.317 297.183 192.098 296.777 191.661C296.402 191.192 296.168 190.052 296.074 188.239C295.668 187.427 295.214 187.02 294.714 187.02C294.214 187.02 293.683 187.286 293.121 187.817C291.621 189.161 288.793 193.473 284.636 200.755C280.48 208.005 277.871 213.052 276.808 215.895C275.777 218.708 274.933 220.645 274.277 221.708C273.933 222.239 273.293 222.505 272.355 222.505C271.511 222.505 270.902 222.348 270.527 222.036C270.183 221.755 270.011 221.38 270.011 220.911C270.011 220.286 270.168 219.567 270.48 218.755C271.824 215.473 273.98 209.427 276.949 200.614L280.23 190.583C280.449 189.677 280.605 189.098 280.699 188.848L280.98 188.145C280.98 187.833 280.668 187.427 280.043 186.927ZM327.388 187.442C327.701 186.911 327.904 186.489 327.997 186.177C328.372 185.239 328.747 184.63 329.122 184.348C329.997 184.255 330.638 184.208 331.044 184.208C331.576 184.208 332.091 184.317 332.591 184.536L332.732 185.098C332.732 185.286 332.654 185.567 332.497 185.942C332.404 186.13 332.201 186.723 331.888 187.723L331.513 188.661L328.419 197.052C327.107 200.833 325.951 203.848 324.951 206.098C323.982 208.348 323.138 210.645 322.419 212.989C321.701 215.302 321.044 216.958 320.451 217.958L320.263 218.427C320.263 218.614 320.435 218.864 320.779 219.177C322.185 218.395 323.372 217.552 324.341 216.645C326.841 214.302 328.326 212.848 328.794 212.286C329.138 211.88 329.466 211.505 329.779 211.161C330.154 211.473 330.497 211.802 330.81 212.145C329.935 213.364 328.466 215.02 326.404 217.114C324.341 219.208 322.482 220.692 320.826 221.567C319.544 222.223 318.341 222.552 317.216 222.552C316.497 222.552 315.951 222.395 315.576 222.083C315.232 221.77 315.06 221.364 315.06 220.864C315.06 220.427 315.216 219.614 315.529 218.427C316.31 216.364 316.857 215.005 317.169 214.348C317.482 213.692 317.904 212.677 318.435 211.302C318.747 210.458 319.388 208.989 320.357 206.895C319.763 207.489 319.029 208.364 318.154 209.52C315.622 212.708 312.716 215.723 309.435 218.567C308.685 219.223 306.872 220.27 303.997 221.708C302.935 222.114 301.685 222.38 300.247 222.505C299.029 222.473 298.216 222.348 297.81 222.13C297.06 221.723 296.451 221.083 295.982 220.208C295.638 219.552 295.466 218.536 295.466 217.161C295.466 215.161 295.904 212.942 296.779 210.505C298.279 206.348 299.794 203.27 301.326 201.27C303.951 197.802 306.544 195.052 309.107 193.02C311.701 190.989 314.076 189.505 316.232 188.567C319.076 187.317 321.544 186.692 323.638 186.692C324.326 186.692 324.982 186.755 325.607 186.88C326.232 187.005 326.826 187.192 327.388 187.442ZM305.076 218.192C305.826 218.005 306.482 217.739 307.044 217.395C307.388 217.208 308.607 216.348 310.701 214.817C314.513 210.973 316.669 208.77 317.169 208.208C318.263 206.989 319.497 205.317 320.872 203.192C321.247 202.661 322.044 201.192 323.263 198.786L324.482 195.552C324.919 193.645 325.138 192.552 325.138 192.27C325.138 191.395 324.779 190.567 324.06 189.786C323.591 189.317 322.826 189.083 321.763 189.083C320.544 189.083 319.497 189.286 318.622 189.692C316.654 190.63 314.857 191.817 313.232 193.255C311.044 195.223 308.935 197.755 306.904 200.848C304.872 203.911 303.435 206.473 302.591 208.536C301.435 211.38 300.857 213.505 300.857 214.911C300.857 216.067 301.091 216.927 301.56 217.489C302.029 218.052 302.622 218.333 303.341 218.333C303.591 218.333 304.169 218.286 305.076 218.192ZM363.765 188.098L368.828 171.927C369.046 171.239 369.359 170.114 369.765 168.552C369.828 168.239 369.89 167.989 369.953 167.802C370.609 165.739 370.937 164.427 370.937 163.864C370.937 163.458 370.734 163.083 370.328 162.739C369.484 162.083 368.062 161.52 366.062 161.052L365.078 160.77L365.453 159.458C370.765 159.458 374.296 159.098 376.046 158.38L376.609 158.333C376.984 158.333 377.39 158.395 377.828 158.52C377.609 159.458 377.453 160.098 377.359 160.442L377.312 160.723L373.421 172.348L368.734 187.348C367.89 189.911 367.328 191.802 367.046 193.02C366.64 194.833 366.171 196.52 365.64 198.083L358.984 218.005L359.124 218.286C360.249 218.098 363.124 215.458 367.749 210.364C368.249 210.583 368.624 210.864 368.874 211.208C366.281 215.114 363.374 218.27 360.156 220.677C357.843 222.395 356.109 223.255 354.953 223.255C354.703 223.255 354.359 223.192 353.921 223.067C353.734 222.786 353.64 222.536 353.64 222.317C353.64 221.38 354.171 219.208 355.234 215.802C356.296 212.395 357.031 209.927 357.437 208.395C356.593 209.177 355.359 210.473 353.734 212.286C350.64 215.755 347.374 218.614 343.937 220.864C341.468 222.489 339.234 223.302 337.234 223.302C336.14 223.302 335.281 222.864 334.656 221.989C333.656 220.645 333.156 218.755 333.156 216.317C333.156 213.286 333.843 210.161 335.218 206.942C336.031 204.973 337.374 202.442 339.249 199.348C341.156 196.255 343.265 193.567 345.578 191.286C347.921 188.973 350.14 187.317 352.234 186.317C354.359 185.286 356.281 184.77 357.999 184.77C359.343 184.77 360.531 185.083 361.562 185.708C362.249 186.114 362.984 186.911 363.765 188.098ZM342.343 218.473C343.593 218.473 345.046 217.895 346.703 216.739C349.734 214.614 352.578 211.802 355.234 208.302C357.921 204.77 359.796 201.255 360.859 197.755C361.953 194.255 362.499 192.177 362.499 191.52C362.499 190.52 362.109 189.567 361.328 188.661C360.546 187.755 359.828 187.302 359.171 187.302C358.015 187.302 356.609 187.708 354.953 188.52C353.328 189.333 351.609 190.723 349.796 192.692C348.765 193.786 347.187 196.067 345.062 199.536C342.937 203.005 341.359 205.989 340.328 208.489C339.296 210.989 338.781 212.911 338.781 214.255C338.781 215.567 339.109 216.598 339.765 217.348C340.453 218.098 341.312 218.473 342.343 218.473ZM385.892 165.927C385.892 164.833 386.314 163.864 387.158 163.02C388.001 162.145 388.986 161.708 390.111 161.708C391.173 161.708 392.079 162.083 392.829 162.833C393.579 163.583 393.954 164.442 393.954 165.411C393.954 166.661 393.486 167.802 392.548 168.833C391.986 169.427 390.954 169.723 389.454 169.723C388.454 169.723 387.611 169.38 386.923 168.692C386.236 168.005 385.892 167.083 385.892 165.927ZM384.064 186.973C383.408 186.973 382.923 187.02 382.611 187.114C381.142 187.895 380.064 188.567 379.376 189.13C377.97 190.223 376.642 191.505 375.392 192.973L372.673 193.583C375.079 190.333 377.751 187.786 380.689 185.942C383.626 184.098 385.939 183.177 387.626 183.177C388.345 183.177 388.876 183.364 389.22 183.739C389.595 184.083 389.783 184.536 389.783 185.098C389.783 186.63 388.908 189.177 387.158 192.739C386.939 193.177 386.423 194.302 385.611 196.114C383.736 200.208 381.736 204.083 379.611 207.739C378.923 208.927 378.173 210.333 377.361 211.958C376.923 212.833 376.533 213.567 376.189 214.161C375.22 215.786 374.736 216.989 374.736 217.77C374.736 217.989 374.814 218.192 374.97 218.38C375.158 218.536 375.376 218.614 375.626 218.614C375.97 218.614 376.47 218.427 377.126 218.052C378.22 217.427 379.517 216.395 381.017 214.958C382.548 213.489 383.892 211.817 385.048 209.942H386.97C386.064 211.63 384.72 213.567 382.939 215.755C381.189 217.942 379.189 219.692 376.939 221.005C375.251 222.005 373.751 222.505 372.439 222.505C371.439 222.505 370.704 222.286 370.236 221.848C369.767 221.442 369.533 220.895 369.533 220.208C369.533 217.802 371.298 213.27 374.829 206.614L382.376 192.364C383.158 190.895 383.704 189.739 384.017 188.895C384.204 188.364 384.298 188.005 384.298 187.817C384.298 187.661 384.22 187.38 384.064 186.973ZM403.378 187.302H400.659L399.347 187.255L396.3 187.348H395.691C395.753 186.661 396.019 185.864 396.487 184.958C400.987 184.833 403.659 184.723 404.503 184.63C405.128 183.13 405.659 181.927 406.097 181.02C407.034 178.989 408.003 176.583 409.003 173.802C409.316 172.895 409.659 172.067 410.034 171.317C410.722 171.223 411.519 171.177 412.425 171.177C413.175 171.177 413.894 171.255 414.581 171.411L414.675 172.161C414.675 172.755 413.269 176.192 410.456 182.473C410.144 183.192 409.878 183.927 409.659 184.677C410.566 184.833 411.097 184.911 411.253 184.911H412.237L413.831 184.958L418.331 184.864C418.331 185.895 418.144 186.739 417.769 187.395C416.519 187.52 414.878 187.583 412.847 187.583C411.847 187.583 411.206 187.598 410.925 187.63C409.331 187.786 408.409 187.942 408.159 188.098L400.378 206.286C399.566 208.067 398.128 211.458 396.066 216.458C396.066 216.645 396.159 216.864 396.347 217.114L396.956 217.208C397.8 217.208 398.847 216.677 400.097 215.614C402.878 213.27 405.503 210.536 407.972 207.411C408.503 207.692 408.972 208.02 409.378 208.395C406.222 212.177 404.003 214.677 402.722 215.895C401.441 217.083 399.816 218.333 397.847 219.645C395.878 220.927 394.691 221.645 394.284 221.802C393.566 222.083 392.831 222.223 392.081 222.223C391.3 222.223 390.722 222.052 390.347 221.708C389.972 221.395 389.784 220.927 389.784 220.302C389.784 219.395 390.55 217.286 392.081 213.973L394.097 209.614L401.175 192.973C402.081 190.817 402.816 188.927 403.378 187.302ZM428.083 165.927C428.083 164.833 428.505 163.864 429.349 163.02C430.193 162.145 431.177 161.708 432.302 161.708C433.364 161.708 434.271 162.083 435.021 162.833C435.771 163.583 436.146 164.442 436.146 165.411C436.146 166.661 435.677 167.802 434.739 168.833C434.177 169.427 433.146 169.723 431.646 169.723C430.646 169.723 429.802 169.38 429.114 168.692C428.427 168.005 428.083 167.083 428.083 165.927ZM426.255 186.973C425.599 186.973 425.114 187.02 424.802 187.114C423.333 187.895 422.255 188.567 421.568 189.13C420.161 190.223 418.833 191.505 417.583 192.973L414.864 193.583C417.271 190.333 419.943 187.786 422.88 185.942C425.818 184.098 428.13 183.177 429.818 183.177C430.536 183.177 431.068 183.364 431.411 183.739C431.786 184.083 431.974 184.536 431.974 185.098C431.974 186.63 431.099 189.177 429.349 192.739C429.13 193.177 428.614 194.302 427.802 196.114C425.927 200.208 423.927 204.083 421.802 207.739C421.114 208.927 420.364 210.333 419.552 211.958C419.114 212.833 418.724 213.567 418.38 214.161C417.411 215.786 416.927 216.989 416.927 217.77C416.927 217.989 417.005 218.192 417.161 218.38C417.349 218.536 417.568 218.614 417.818 218.614C418.161 218.614 418.661 218.427 419.318 218.052C420.411 217.427 421.708 216.395 423.208 214.958C424.739 213.489 426.083 211.817 427.239 209.942H429.161C428.255 211.63 426.911 213.567 425.13 215.755C423.38 217.942 421.38 219.692 419.13 221.005C417.443 222.005 415.943 222.505 414.63 222.505C413.63 222.505 412.896 222.286 412.427 221.848C411.958 221.442 411.724 220.895 411.724 220.208C411.724 217.802 413.489 213.27 417.021 206.614L424.568 192.364C425.349 190.895 425.896 189.739 426.208 188.895C426.396 188.364 426.489 188.005 426.489 187.817C426.489 187.661 426.411 187.38 426.255 186.973ZM462.351 194.755C462.351 202.005 460.147 208.442 455.741 214.067C451.366 219.692 446.819 222.505 442.101 222.505C439.569 222.505 437.522 221.567 435.96 219.692C434.397 217.786 433.616 214.817 433.616 210.786C433.616 208.067 434.226 204.942 435.444 201.411C436.663 197.848 438.241 194.895 440.179 192.552C440.616 192.02 441.116 191.38 441.679 190.63C443.335 188.473 445.304 186.661 447.585 185.192C449.866 183.723 452.194 182.989 454.569 182.989C456.757 182.989 458.601 183.911 460.101 185.755C461.601 187.567 462.351 190.567 462.351 194.755ZM437.976 216.083C437.976 217.52 438.304 218.583 438.96 219.27C439.647 219.958 440.741 220.302 442.241 220.302C443.71 220.302 445.194 219.583 446.694 218.145C449.382 215.52 452.069 211.005 454.757 204.598C457.444 198.192 458.788 193.145 458.788 189.458C458.788 188.145 458.46 187.114 457.804 186.364C457.147 185.583 456.397 185.192 455.554 185.192C453.71 185.192 451.788 186.27 449.788 188.427C446.382 192.052 443.444 197.052 440.976 203.427C438.976 208.614 437.976 212.833 437.976 216.083ZM477.353 188.895C477.29 188.645 477.196 188.473 477.071 188.38C476.978 188.286 476.853 188.239 476.696 188.239C475.071 188.239 472.54 190.802 469.103 195.927C468.759 195.958 468.509 195.973 468.353 195.973C468.165 195.973 467.853 195.958 467.415 195.927C468.071 194.614 469.134 192.958 470.603 190.958C472.103 188.958 473.681 187.302 475.337 185.989C477.024 184.645 478.618 183.645 480.118 182.989C480.618 182.77 481.071 182.661 481.478 182.661C481.634 182.661 481.868 182.677 482.181 182.708C482.743 183.27 483.024 183.848 483.024 184.442C483.024 184.817 482.978 185.192 482.884 185.567C482.821 185.942 482.665 186.52 482.415 187.302C481.478 189.989 480.79 191.88 480.353 192.973L477.681 199.911C477.056 201.505 476.446 203.192 475.853 204.973C476.103 204.661 476.321 204.364 476.509 204.083C479.415 199.833 482.54 195.77 485.884 191.895C489.259 187.989 492.04 185.38 494.228 184.067C495.79 183.098 497.274 182.614 498.681 182.614C499.743 182.614 500.571 182.911 501.165 183.505C501.759 184.067 502.056 184.802 502.056 185.708C502.056 186.27 501.993 186.817 501.868 187.348C501.649 188.536 501.165 190.192 500.415 192.317C499.665 194.442 497.696 199.052 494.509 206.145L489.821 216.973L489.634 217.583C489.634 217.77 489.743 218.052 489.962 218.427C491.712 218.052 494.337 215.27 497.837 210.083L499.759 210.13C498.79 211.88 497.196 214.13 494.978 216.88C493.259 218.973 491.415 220.598 489.446 221.755C488.353 222.411 487.181 222.739 485.931 222.739C485.181 222.739 484.618 222.583 484.243 222.27C483.868 221.958 483.681 221.614 483.681 221.239C483.681 219.583 484.478 217.02 486.071 213.552L492.868 198.692L495.493 192.458C496.087 191.083 496.446 190.13 496.571 189.598C496.696 189.067 496.759 188.536 496.759 188.005C496.759 187.598 496.649 187.286 496.431 187.067C496.212 186.817 495.931 186.692 495.587 186.692C495.087 186.692 494.509 186.895 493.853 187.302C491.54 188.677 488.993 191.036 486.212 194.38C482.212 199.192 479.556 202.645 478.243 204.739C474.962 209.927 472.103 215.223 469.665 220.63C469.29 221.505 468.837 222.145 468.306 222.552C467.649 222.645 467.149 222.692 466.806 222.692C466.399 222.692 465.774 222.614 464.931 222.458C464.806 222.208 464.743 222.005 464.743 221.848C464.743 221.598 464.899 221.036 465.212 220.161C465.899 218.13 467.587 213.848 470.274 207.317L471.353 204.786L477.353 188.895ZM535.104 187.442C535.417 186.911 535.62 186.489 535.714 186.177C536.089 185.239 536.464 184.63 536.839 184.348C537.714 184.255 538.354 184.208 538.761 184.208C539.292 184.208 539.807 184.317 540.307 184.536L540.448 185.098C540.448 185.286 540.37 185.567 540.214 185.942C540.12 186.13 539.917 186.723 539.604 187.723L539.229 188.661L536.136 197.052C534.823 200.833 533.667 203.848 532.667 206.098C531.698 208.348 530.854 210.645 530.136 212.989C529.417 215.302 528.761 216.958 528.167 217.958L527.979 218.427C527.979 218.614 528.151 218.864 528.495 219.177C529.901 218.395 531.089 217.552 532.057 216.645C534.557 214.302 536.042 212.848 536.511 212.286C536.854 211.88 537.182 211.505 537.495 211.161C537.87 211.473 538.214 211.802 538.526 212.145C537.651 213.364 536.182 215.02 534.12 217.114C532.057 219.208 530.198 220.692 528.542 221.567C527.261 222.223 526.057 222.552 524.932 222.552C524.214 222.552 523.667 222.395 523.292 222.083C522.948 221.77 522.776 221.364 522.776 220.864C522.776 220.427 522.932 219.614 523.245 218.427C524.026 216.364 524.573 215.005 524.886 214.348C525.198 213.692 525.62 212.677 526.151 211.302C526.464 210.458 527.104 208.989 528.073 206.895C527.479 207.489 526.745 208.364 525.87 209.52C523.339 212.708 520.432 215.723 517.151 218.567C516.401 219.223 514.589 220.27 511.714 221.708C510.651 222.114 509.401 222.38 507.964 222.505C506.745 222.473 505.932 222.348 505.526 222.13C504.776 221.723 504.167 221.083 503.698 220.208C503.354 219.552 503.182 218.536 503.182 217.161C503.182 215.161 503.62 212.942 504.495 210.505C505.995 206.348 507.511 203.27 509.042 201.27C511.667 197.802 514.261 195.052 516.823 193.02C519.417 190.989 521.792 189.505 523.948 188.567C526.792 187.317 529.261 186.692 531.354 186.692C532.042 186.692 532.698 186.755 533.323 186.88C533.948 187.005 534.542 187.192 535.104 187.442ZM512.792 218.192C513.542 218.005 514.198 217.739 514.761 217.395C515.104 217.208 516.323 216.348 518.417 214.817C522.229 210.973 524.386 208.77 524.886 208.208C525.979 206.989 527.214 205.317 528.589 203.192C528.964 202.661 529.761 201.192 530.979 198.786L532.198 195.552C532.636 193.645 532.854 192.552 532.854 192.27C532.854 191.395 532.495 190.567 531.776 189.786C531.307 189.317 530.542 189.083 529.479 189.083C528.261 189.083 527.214 189.286 526.339 189.692C524.37 190.63 522.573 191.817 520.948 193.255C518.761 195.223 516.651 197.755 514.62 200.848C512.589 203.911 511.151 206.473 510.307 208.536C509.151 211.38 508.573 213.505 508.573 214.911C508.573 216.067 508.807 216.927 509.276 217.489C509.745 218.052 510.339 218.333 511.057 218.333C511.307 218.333 511.886 218.286 512.792 218.192ZM557.888 160.723L558.028 159.411C561.841 159.13 564.731 158.989 566.7 158.989H568.763V159.645L567.309 164.192C567.247 164.317 566.106 167.208 563.888 172.864L557.559 189.364C556.434 192.458 554.559 197.239 551.934 203.708L550.388 207.786C549.294 210.755 548.419 212.755 547.763 213.786C546.731 215.473 546.216 216.723 546.216 217.536L546.403 218.286C547.434 218.192 548.763 217.489 550.388 216.177C552.763 214.333 554.919 211.973 556.856 209.098C557.481 208.973 557.966 208.911 558.309 208.911L558.872 208.958C557.653 211.239 556.341 213.098 554.934 214.536C552.716 216.786 551.184 218.208 550.341 218.802C548.466 220.177 546.669 221.223 544.95 221.942C543.856 222.411 542.778 222.645 541.716 222.645C541.153 222.645 540.731 222.505 540.45 222.223C540.169 221.942 540.028 221.583 540.028 221.145C540.028 219.677 542.528 213.223 547.528 201.786C549.059 198.317 550.653 194.348 552.309 189.88C555.216 182.067 557.45 176.505 559.013 173.192C560.575 169.88 561.716 166.895 562.434 164.239C562.497 163.958 562.528 163.723 562.528 163.536C562.528 163.067 562.309 162.63 561.872 162.223C561.309 161.723 559.981 161.223 557.888 160.723ZM19.584 342.38V282.38H1.056V270.86H50.976V282.38H32.736V342.38H19.584ZM66.0885 343.532C62.4405 343.532 59.2725 342.924 56.5845 341.708C53.8965 340.492 51.8165 338.764 50.3445 336.524C48.8725 334.22 48.1365 331.564 48.1365 328.556C48.1365 325.676 48.7765 323.116 50.0565 320.876C51.3365 318.572 53.3205 316.652 56.0085 315.116C58.6965 313.58 62.0885 312.492 66.1845 311.852L83.2725 309.068V318.668L68.5845 321.164C66.0885 321.612 64.2325 322.412 63.0165 323.564C61.8005 324.716 61.1925 326.22 61.1925 328.076C61.1925 329.868 61.8645 331.308 63.2085 332.396C64.6165 333.42 66.3445 333.932 68.3925 333.932C71.0165 333.932 73.3205 333.388 75.3045 332.3C77.3525 331.148 78.9205 329.58 80.0085 327.596C81.1605 325.612 81.7365 323.436 81.7365 321.068V307.628C81.7365 305.388 80.8405 303.532 79.0485 302.06C77.3205 300.524 75.0165 299.756 72.1365 299.756C69.4485 299.756 67.0485 300.492 64.9365 301.964C62.8885 303.372 61.3845 305.26 60.4245 307.628L50.1525 302.636C51.1765 299.884 52.7765 297.516 54.9525 295.532C57.1925 293.484 59.8165 291.884 62.8245 290.732C65.8325 289.58 69.0965 289.004 72.6165 289.004C76.9045 289.004 80.6805 289.804 83.9445 291.404C87.2085 292.94 89.7365 295.116 91.5285 297.932C93.3845 300.684 94.3125 303.916 94.3125 307.628V342.38H82.4085V333.452L85.0965 333.26C83.7525 335.5 82.1525 337.388 80.2965 338.924C78.4405 340.396 76.3285 341.548 73.9605 342.38C71.5925 343.148 68.9685 343.532 66.0885 343.532ZM123.888 343.532C118.32 343.532 113.456 342.22 109.296 339.596C105.2 336.908 102.384 333.292 100.848 328.748L110.256 324.236C111.6 327.18 113.456 329.484 115.824 331.148C118.256 332.812 120.944 333.644 123.888 333.644C126.192 333.644 128.016 333.132 129.36 332.108C130.704 331.084 131.376 329.74 131.376 328.076C131.376 327.052 131.088 326.22 130.512 325.58C130 324.876 129.264 324.3 128.304 323.852C127.408 323.34 126.416 322.924 125.328 322.604L116.784 320.204C112.368 318.924 109.008 316.972 106.704 314.348C104.464 311.724 103.344 308.62 103.344 305.036C103.344 301.836 104.144 299.052 105.744 296.684C107.408 294.252 109.68 292.364 112.56 291.02C115.504 289.676 118.864 289.004 122.64 289.004C127.568 289.004 131.92 290.188 135.696 292.556C139.472 294.924 142.16 298.252 143.76 302.54L134.16 307.052C133.264 304.684 131.76 302.796 129.648 301.388C127.536 299.98 125.168 299.276 122.544 299.276C120.432 299.276 118.768 299.756 117.552 300.716C116.336 301.676 115.728 302.924 115.728 304.46C115.728 305.42 115.984 306.252 116.496 306.956C117.008 307.66 117.712 308.236 118.608 308.684C119.568 309.132 120.656 309.548 121.872 309.932L130.224 312.428C134.512 313.708 137.808 315.628 140.112 318.188C142.48 320.748 143.664 323.884 143.664 327.596C143.664 330.732 142.832 333.516 141.168 335.948C139.504 338.316 137.2 340.172 134.256 341.516C131.312 342.86 127.856 343.532 123.888 343.532ZM175.217 342.956C169.329 342.956 164.753 341.356 161.489 338.156C158.289 334.892 156.689 330.316 156.689 324.428V301.388H147.665V290.156H148.625C151.185 290.156 153.169 289.484 154.577 288.14C155.985 286.796 156.689 284.844 156.689 282.284V278.252H169.265V290.156H181.265V301.388H169.265V323.756C169.265 325.484 169.553 326.956 170.129 328.172C170.769 329.388 171.729 330.316 173.009 330.956C174.353 331.596 176.049 331.916 178.097 331.916C178.545 331.916 179.057 331.884 179.633 331.82C180.273 331.756 180.881 331.692 181.457 331.628V342.38C180.561 342.508 179.537 342.636 178.385 342.764C177.233 342.892 176.177 342.956 175.217 342.956ZM213.444 343.532C208.068 343.532 203.364 342.316 199.332 339.884C195.3 337.452 192.164 334.156 189.924 329.996C187.684 325.836 186.564 321.228 186.564 316.172C186.564 310.924 187.684 306.284 189.924 302.252C192.228 298.156 195.332 294.924 199.236 292.556C203.204 290.188 207.62 289.004 212.484 289.004C216.58 289.004 220.164 289.676 223.236 291.02C226.372 292.364 229.028 294.22 231.204 296.588C233.38 298.956 235.044 301.676 236.196 304.748C237.348 307.756 237.924 311.02 237.924 314.54C237.924 315.436 237.86 316.364 237.732 317.324C237.668 318.284 237.508 319.116 237.252 319.82H196.932V310.22H230.148L224.196 314.732C224.772 311.788 224.612 309.164 223.716 306.86C222.884 304.556 221.476 302.732 219.492 301.388C217.572 300.044 215.236 299.372 212.484 299.372C209.86 299.372 207.524 300.044 205.476 301.388C203.428 302.668 201.86 304.588 200.772 307.148C199.748 309.644 199.364 312.684 199.62 316.268C199.364 319.468 199.78 322.316 200.868 324.812C202.02 327.244 203.684 329.132 205.86 330.476C208.1 331.82 210.66 332.492 213.54 332.492C216.42 332.492 218.852 331.884 220.836 330.668C222.884 329.452 224.484 327.82 225.636 325.772L235.812 330.764C234.788 333.26 233.188 335.468 231.012 337.388C228.836 339.308 226.244 340.812 223.236 341.9C220.292 342.988 217.028 343.532 213.444 343.532Z" fill="#001542"/>
</svg>
