<svg width="568" height="317" viewBox="0 0 568 317" fill="none" xmlns="http://www.w3.org/2000/svg">
<path d="M5.912 73.3796V1.85963H18.392L45.176 38.2436H39.224L65.432 1.85963H77.912V73.3796H64.76V16.7396L69.848 17.9876L42.68 54.1796H41.144L14.648 17.9876L18.968 16.7396V73.3796H5.912ZM114.16 74.5316C109.04 74.5316 104.368 73.3476 100.144 70.9796C95.9835 68.6116 92.6555 65.3796 90.1595 61.2836C87.7275 57.1876 86.5115 52.5156 86.5115 47.2676C86.5115 42.0196 87.7275 37.3476 90.1595 33.2516C92.6555 29.1556 95.9835 25.9236 100.144 23.5556C104.304 21.1876 108.976 20.0036 114.16 20.0036C119.28 20.0036 123.92 21.1876 128.08 23.5556C132.24 25.9236 135.536 29.1556 137.968 33.2516C140.464 37.2836 141.712 41.9556 141.712 47.2676C141.712 52.5156 140.464 57.1876 137.968 61.2836C135.472 65.3796 132.144 68.6116 127.984 70.9796C123.824 73.3476 119.216 74.5316 114.16 74.5316ZM114.16 63.0116C116.976 63.0116 119.44 62.3396 121.552 60.9956C123.728 59.6516 125.424 57.7956 126.64 55.4276C127.92 52.9956 128.56 50.2756 128.56 47.2676C128.56 44.1956 127.92 41.5076 126.64 39.2036C125.424 36.8356 123.728 34.9796 121.552 33.6356C119.44 32.2276 116.976 31.5236 114.16 31.5236C111.28 31.5236 108.752 32.2276 106.576 33.6356C104.4 34.9796 102.672 36.8356 101.392 39.2036C100.176 41.5076 99.5675 44.1956 99.5675 47.2676C99.5675 50.2756 100.176 52.9956 101.392 55.4276C102.672 57.7956 104.4 59.6516 106.576 60.9956C108.752 62.3396 111.28 63.0116 114.16 63.0116ZM173.617 74.5316C168.561 74.5316 164.049 73.3476 160.081 70.9796C156.113 68.5476 152.977 65.2516 150.673 61.0916C148.369 56.9316 147.217 52.3236 147.217 47.2676C147.217 42.1476 148.369 37.5396 150.673 33.4436C152.977 29.3476 156.113 26.0836 160.081 23.6516C164.113 21.2196 168.593 20.0036 173.521 20.0036C177.489 20.0036 181.009 20.8036 184.081 22.4036C187.217 23.9396 189.681 26.1156 191.473 28.9316L189.553 31.5236V0.707636H202.129V73.3796H190.225V63.2996L191.569 65.7956C189.777 68.6116 187.281 70.7876 184.081 72.3236C180.881 73.7956 177.393 74.5316 173.617 74.5316ZM174.961 63.0116C177.841 63.0116 180.369 62.3396 182.545 60.9956C184.721 59.6516 186.417 57.7956 187.633 55.4276C188.913 53.0596 189.553 50.3396 189.553 47.2676C189.553 44.2596 188.913 41.5716 187.633 39.2036C186.417 36.7716 184.721 34.8836 182.545 33.5396C180.369 32.1956 177.841 31.5236 174.961 31.5236C172.145 31.5236 169.617 32.2276 167.377 33.6356C165.137 34.9796 163.377 36.8356 162.097 39.2036C160.881 41.5076 160.273 44.1956 160.273 47.2676C160.273 50.3396 160.881 53.0596 162.097 55.4276C163.377 57.7956 165.137 59.6516 167.377 60.9956C169.617 62.3396 172.145 63.0116 174.961 63.0116ZM236.677 74.5316C231.301 74.5316 226.597 73.3156 222.565 70.8836C218.533 68.4516 215.397 65.1556 213.157 60.9956C210.917 56.8356 209.797 52.2276 209.797 47.1716C209.797 41.9236 210.917 37.2836 213.157 33.2516C215.461 29.1556 218.565 25.9236 222.469 23.5556C226.437 21.1876 230.853 20.0036 235.717 20.0036C239.813 20.0036 243.397 20.6756 246.469 22.0196C249.605 23.3636 252.261 25.2196 254.437 27.5876C256.613 29.9556 258.277 32.6756 259.429 35.7476C260.581 38.7556 261.157 42.0196 261.157 45.5396C261.157 46.4356 261.093 47.3636 260.965 48.3236C260.901 49.2836 260.741 50.1156 260.485 50.8196H220.165V41.2196H253.381L247.429 45.7316C248.005 42.7876 247.845 40.1636 246.949 37.8596C246.117 35.5556 244.709 33.7316 242.725 32.3876C240.805 31.0436 238.469 30.3716 235.717 30.3716C233.093 30.3716 230.757 31.0436 228.709 32.3876C226.661 33.6676 225.093 35.5876 224.005 38.1476C222.981 40.6436 222.597 43.6836 222.853 47.2676C222.597 50.4676 223.013 53.3156 224.101 55.8116C225.253 58.2436 226.917 60.1316 229.093 61.4756C231.333 62.8196 233.893 63.4916 236.773 63.4916C239.653 63.4916 242.085 62.8836 244.069 61.6676C246.117 60.4516 247.717 58.8196 248.869 56.7716L259.045 61.7636C258.021 64.2596 256.421 66.4676 254.245 68.3876C252.069 70.3076 249.477 71.8116 246.469 72.8996C243.525 73.9876 240.261 74.5316 236.677 74.5316ZM268.77 73.3796V21.1556H280.578V32.7716L279.618 31.0436C280.834 27.1396 282.722 24.4196 285.282 22.8836C287.906 21.3476 291.042 20.5796 294.69 20.5796H297.762V31.7156H293.25C289.666 31.7156 286.786 32.8356 284.61 35.0756C282.434 37.2516 281.346 40.3236 281.346 44.2916V73.3796H268.77ZM302.756 73.3796V21.1556H314.564V31.4276L313.604 29.6036C314.82 26.4676 316.804 24.0996 319.556 22.4996C322.372 20.8356 325.636 20.0036 329.348 20.0036C333.188 20.0036 336.58 20.8356 339.524 22.4996C342.532 24.1636 344.868 26.4996 346.532 29.5076C348.196 32.4516 349.028 35.8756 349.028 39.7796V73.3796H336.452V42.7556C336.452 40.4516 336.004 38.4676 335.108 36.8036C334.212 35.1396 332.964 33.8596 331.364 32.9636C329.828 32.0036 328.004 31.5236 325.892 31.5236C323.844 31.5236 322.02 32.0036 320.42 32.9636C318.82 33.8596 317.572 35.1396 316.676 36.8036C315.78 38.4676 315.332 40.4516 315.332 42.7556V73.3796H302.756ZM368.085 73.3796L392.757 1.85963H409.653L434.325 73.3796H420.117L415.029 58.0196H387.381L382.197 73.3796H368.085ZM391.125 46.4996H411.285L399.381 10.8836H403.029L391.125 46.4996ZM439.309 73.3796V21.1556H451.117V32.7716L450.157 31.0436C451.373 27.1396 453.261 24.4196 455.821 22.8836C458.445 21.3476 461.581 20.5796 465.229 20.5796H468.301V31.7156H463.789C460.205 31.7156 457.325 32.8356 455.149 35.0756C452.973 37.2516 451.885 40.3236 451.885 44.2916V73.3796H439.309ZM498.509 73.9556C492.621 73.9556 488.045 72.3556 484.781 69.1556C481.581 65.8916 479.981 61.3156 479.981 55.4276V32.3876H470.957V21.1556H471.917C474.477 21.1556 476.461 20.4836 477.869 19.1396C479.277 17.7956 479.981 15.8436 479.981 13.2836V9.25163H492.557V21.1556H504.557V32.3876H492.557V54.7556C492.557 56.4836 492.845 57.9556 493.421 59.1716C494.061 60.3876 495.021 61.3156 496.301 61.9556C497.645 62.5956 499.341 62.9156 501.389 62.9156C501.837 62.9156 502.349 62.8836 502.925 62.8196C503.565 62.7556 504.173 62.6916 504.749 62.6276V73.3796C503.853 73.5076 502.829 73.6356 501.677 73.7636C500.525 73.8916 499.469 73.9556 498.509 73.9556ZM18.008 194.38L0.0560001 142.156H13.304L26.456 181.804L21.848 181.708L35.864 142.156H47L60.92 181.708L56.312 181.804L69.464 142.156H82.712L64.76 194.38H53.528L39.32 153.004H43.544L29.144 194.38H18.008ZM87.686 194.38V142.156H100.262V194.38H87.686ZM87.686 136.3V122.86H100.262V136.3H87.686ZM133.762 194.956C127.874 194.956 123.298 193.356 120.034 190.156C116.834 186.892 115.234 182.316 115.234 176.428V153.388H106.21V142.156H107.17C109.73 142.156 111.714 141.484 113.122 140.14C114.53 138.796 115.234 136.844 115.234 134.284V130.252H127.81V142.156H139.81V153.388H127.81V175.756C127.81 177.484 128.098 178.956 128.674 180.172C129.314 181.388 130.274 182.316 131.554 182.956C132.898 183.596 134.594 183.916 136.642 183.916C137.09 183.916 137.602 183.884 138.178 183.82C138.818 183.756 139.426 183.692 140.002 183.628V194.38C139.106 194.508 138.082 194.636 136.93 194.764C135.778 194.892 134.722 194.956 133.762 194.956ZM147.69 194.38V121.708H160.266V152.428L158.538 150.604C159.754 147.468 161.738 145.1 164.49 143.5C167.306 141.836 170.57 141.004 174.282 141.004C178.122 141.004 181.514 141.836 184.458 143.5C187.466 145.164 189.802 147.5 191.466 150.508C193.13 153.452 193.962 156.876 193.962 160.78V194.38H181.386V163.756C181.386 161.452 180.938 159.468 180.042 157.804C179.146 156.14 177.898 154.86 176.298 153.964C174.762 153.004 172.938 152.524 170.826 152.524C168.778 152.524 166.954 153.004 165.354 153.964C163.754 154.86 162.506 156.14 161.61 157.804C160.714 159.468 160.266 161.452 160.266 163.756V194.38H147.69ZM224.947 131.802C225.103 132.333 225.478 132.77 226.072 133.114C226.822 133.552 227.962 133.77 229.494 133.77L233.525 133.723L235.353 133.864L239.197 133.77L244.259 133.817L247.681 133.63L252.322 133.77L256.259 133.583C256.697 133.583 257.212 133.598 257.806 133.63C259.65 133.692 260.759 133.723 261.134 133.723C261.572 133.723 262.259 133.708 263.197 133.677C264.134 133.614 266.072 133.567 269.009 133.536C271.947 133.473 274.166 132.88 275.666 131.755L276.416 131.895H277.447C276.884 134.989 276.306 137.567 275.712 139.63C275.4 140.817 275.181 141.786 275.056 142.536C274.962 143.098 274.791 143.958 274.541 145.114C273.853 145.083 273.244 145.005 272.712 144.88C272.681 141.317 271.994 138.864 270.65 137.52C269.306 136.177 266.728 135.505 262.916 135.505C259.572 135.505 256.525 135.661 253.775 135.973C252.931 136.098 252.259 136.255 251.759 136.442C251.634 136.786 251.525 137.098 251.431 137.38C251.025 138.942 250.384 143.38 249.509 150.692C249.259 152.911 248.087 159.817 245.994 171.411L242.525 188.38C242.4 189.223 242.306 189.739 242.244 189.927C242.056 190.614 241.962 191.114 241.962 191.427C241.962 191.864 242.134 192.192 242.478 192.411C243.134 192.786 244.416 192.989 246.322 193.02C246.759 193.02 247.962 193.098 249.931 193.255C251.15 193.348 251.853 193.442 252.041 193.536C252.166 193.598 252.275 193.723 252.369 193.911L252.134 195.411C250.009 195.38 248.306 195.286 247.025 195.13C245.744 194.973 244.712 194.895 243.931 194.895C238.744 194.895 232.4 195.036 224.9 195.317C225.087 194.63 225.337 194.005 225.65 193.442C227.212 193.223 228.916 193.067 230.759 192.973C231.197 192.848 231.775 192.708 232.494 192.552C233.556 192.333 234.228 192.114 234.509 191.895C234.791 191.645 235.041 191.255 235.259 190.723C236.197 188.411 237.197 183.317 238.259 175.442L242.572 151.302C243.947 143.52 244.697 138.427 244.822 136.02C243.884 135.864 242.869 135.786 241.775 135.786C235.869 135.786 231.994 136.005 230.15 136.442C228.306 136.88 226.759 137.598 225.509 138.598C224.291 139.567 222.541 141.661 220.259 144.88C219.697 144.786 219.15 144.723 218.619 144.692C218.869 143.848 219.15 143.052 219.462 142.302C220.837 138.927 222.025 135.411 223.025 131.755H224.337L224.947 131.802ZM279.043 159.927C278.011 160.677 277.043 161.552 276.136 162.552C275.886 162.833 274.464 164.708 271.871 168.177L269.949 168.27C270.73 166.583 272.183 164.505 274.308 162.036C276.433 159.567 278.277 157.88 279.839 156.973C280.839 156.38 281.964 156.036 283.214 155.942C283.996 156.161 284.527 156.458 284.808 156.833C285.121 157.208 285.277 157.661 285.277 158.192C285.277 158.723 285.214 159.255 285.089 159.786C284.746 161.505 284.058 163.958 283.027 167.145C281.996 170.333 281.074 172.848 280.261 174.692L277.824 180.458L277.636 181.302C278.074 180.552 278.964 178.88 280.308 176.286C285.402 166.63 289.074 160.661 291.324 158.38C292.98 156.755 294.918 155.942 297.136 155.942C298.386 155.942 299.558 156.442 300.652 157.442C301.464 158.223 301.871 159.255 301.871 160.536C301.871 161.973 301.418 163.208 300.511 164.239C299.886 164.958 298.996 165.317 297.839 165.317C296.871 165.317 296.183 165.098 295.777 164.661C295.402 164.192 295.168 163.052 295.074 161.239C294.668 160.427 294.214 160.02 293.714 160.02C293.214 160.02 292.683 160.286 292.121 160.817C290.621 162.161 287.793 166.473 283.636 173.755C279.48 181.005 276.871 186.052 275.808 188.895C274.777 191.708 273.933 193.645 273.277 194.708C272.933 195.239 272.293 195.505 271.355 195.505C270.511 195.505 269.902 195.348 269.527 195.036C269.183 194.755 269.011 194.38 269.011 193.911C269.011 193.286 269.168 192.567 269.48 191.755C270.824 188.473 272.98 182.427 275.949 173.614L279.23 163.583C279.449 162.677 279.605 162.098 279.699 161.848L279.98 161.145C279.98 160.833 279.668 160.427 279.043 159.927ZM326.388 160.442C326.701 159.911 326.904 159.489 326.997 159.177C327.372 158.239 327.747 157.63 328.122 157.348C328.997 157.255 329.638 157.208 330.044 157.208C330.576 157.208 331.091 157.317 331.591 157.536L331.732 158.098C331.732 158.286 331.654 158.567 331.497 158.942C331.404 159.13 331.201 159.723 330.888 160.723L330.513 161.661L327.419 170.052C326.107 173.833 324.951 176.848 323.951 179.098C322.982 181.348 322.138 183.645 321.419 185.989C320.701 188.302 320.044 189.958 319.451 190.958L319.263 191.427C319.263 191.614 319.435 191.864 319.779 192.177C321.185 191.395 322.372 190.552 323.341 189.645C325.841 187.302 327.326 185.848 327.794 185.286C328.138 184.88 328.466 184.505 328.779 184.161C329.154 184.473 329.497 184.802 329.81 185.145C328.935 186.364 327.466 188.02 325.404 190.114C323.341 192.208 321.482 193.692 319.826 194.567C318.544 195.223 317.341 195.552 316.216 195.552C315.497 195.552 314.951 195.395 314.576 195.083C314.232 194.77 314.06 194.364 314.06 193.864C314.06 193.427 314.216 192.614 314.529 191.427C315.31 189.364 315.857 188.005 316.169 187.348C316.482 186.692 316.904 185.677 317.435 184.302C317.747 183.458 318.388 181.989 319.357 179.895C318.763 180.489 318.029 181.364 317.154 182.52C314.622 185.708 311.716 188.723 308.435 191.567C307.685 192.223 305.872 193.27 302.997 194.708C301.935 195.114 300.685 195.38 299.247 195.505C298.029 195.473 297.216 195.348 296.81 195.13C296.06 194.723 295.451 194.083 294.982 193.208C294.638 192.552 294.466 191.536 294.466 190.161C294.466 188.161 294.904 185.942 295.779 183.505C297.279 179.348 298.794 176.27 300.326 174.27C302.951 170.802 305.544 168.052 308.107 166.02C310.701 163.989 313.076 162.505 315.232 161.567C318.076 160.317 320.544 159.692 322.638 159.692C323.326 159.692 323.982 159.755 324.607 159.88C325.232 160.005 325.826 160.192 326.388 160.442ZM304.076 191.192C304.826 191.005 305.482 190.739 306.044 190.395C306.388 190.208 307.607 189.348 309.701 187.817C313.513 183.973 315.669 181.77 316.169 181.208C317.263 179.989 318.497 178.317 319.872 176.192C320.247 175.661 321.044 174.192 322.263 171.786L323.482 168.552C323.919 166.645 324.138 165.552 324.138 165.27C324.138 164.395 323.779 163.567 323.06 162.786C322.591 162.317 321.826 162.083 320.763 162.083C319.544 162.083 318.497 162.286 317.622 162.692C315.654 163.63 313.857 164.817 312.232 166.255C310.044 168.223 307.935 170.755 305.904 173.848C303.872 176.911 302.435 179.473 301.591 181.536C300.435 184.38 299.857 186.505 299.857 187.911C299.857 189.067 300.091 189.927 300.56 190.489C301.029 191.052 301.622 191.333 302.341 191.333C302.591 191.333 303.169 191.286 304.076 191.192ZM362.765 161.098L367.828 144.927C368.046 144.239 368.359 143.114 368.765 141.552C368.828 141.239 368.89 140.989 368.953 140.802C369.609 138.739 369.937 137.427 369.937 136.864C369.937 136.458 369.734 136.083 369.328 135.739C368.484 135.083 367.062 134.52 365.062 134.052L364.078 133.77L364.453 132.458C369.765 132.458 373.296 132.098 375.046 131.38L375.609 131.333C375.984 131.333 376.39 131.395 376.828 131.52C376.609 132.458 376.453 133.098 376.359 133.442L376.312 133.723L372.421 145.348L367.734 160.348C366.89 162.911 366.328 164.802 366.046 166.02C365.64 167.833 365.171 169.52 364.64 171.083L357.984 191.005L358.124 191.286C359.249 191.098 362.124 188.458 366.749 183.364C367.249 183.583 367.624 183.864 367.874 184.208C365.281 188.114 362.374 191.27 359.156 193.677C356.843 195.395 355.109 196.255 353.953 196.255C353.703 196.255 353.359 196.192 352.921 196.067C352.734 195.786 352.64 195.536 352.64 195.317C352.64 194.38 353.171 192.208 354.234 188.802C355.296 185.395 356.031 182.927 356.437 181.395C355.593 182.177 354.359 183.473 352.734 185.286C349.64 188.755 346.374 191.614 342.937 193.864C340.468 195.489 338.234 196.302 336.234 196.302C335.14 196.302 334.281 195.864 333.656 194.989C332.656 193.645 332.156 191.755 332.156 189.317C332.156 186.286 332.843 183.161 334.218 179.942C335.031 177.973 336.374 175.442 338.249 172.348C340.156 169.255 342.265 166.567 344.578 164.286C346.921 161.973 349.14 160.317 351.234 159.317C353.359 158.286 355.281 157.77 356.999 157.77C358.343 157.77 359.531 158.083 360.562 158.708C361.249 159.114 361.984 159.911 362.765 161.098ZM341.343 191.473C342.593 191.473 344.046 190.895 345.703 189.739C348.734 187.614 351.578 184.802 354.234 181.302C356.921 177.77 358.796 174.255 359.859 170.755C360.953 167.255 361.499 165.177 361.499 164.52C361.499 163.52 361.109 162.567 360.328 161.661C359.546 160.755 358.828 160.302 358.171 160.302C357.015 160.302 355.609 160.708 353.953 161.52C352.328 162.333 350.609 163.723 348.796 165.692C347.765 166.786 346.187 169.067 344.062 172.536C341.937 176.005 340.359 178.989 339.328 181.489C338.296 183.989 337.781 185.911 337.781 187.255C337.781 188.567 338.109 189.598 338.765 190.348C339.453 191.098 340.312 191.473 341.343 191.473ZM384.892 138.927C384.892 137.833 385.314 136.864 386.158 136.02C387.001 135.145 387.986 134.708 389.111 134.708C390.173 134.708 391.079 135.083 391.829 135.833C392.579 136.583 392.954 137.442 392.954 138.411C392.954 139.661 392.486 140.802 391.548 141.833C390.986 142.427 389.954 142.723 388.454 142.723C387.454 142.723 386.611 142.38 385.923 141.692C385.236 141.005 384.892 140.083 384.892 138.927ZM383.064 159.973C382.408 159.973 381.923 160.02 381.611 160.114C380.142 160.895 379.064 161.567 378.376 162.13C376.97 163.223 375.642 164.505 374.392 165.973L371.673 166.583C374.079 163.333 376.751 160.786 379.689 158.942C382.626 157.098 384.939 156.177 386.626 156.177C387.345 156.177 387.876 156.364 388.22 156.739C388.595 157.083 388.783 157.536 388.783 158.098C388.783 159.63 387.908 162.177 386.158 165.739C385.939 166.177 385.423 167.302 384.611 169.114C382.736 173.208 380.736 177.083 378.611 180.739C377.923 181.927 377.173 183.333 376.361 184.958C375.923 185.833 375.533 186.567 375.189 187.161C374.22 188.786 373.736 189.989 373.736 190.77C373.736 190.989 373.814 191.192 373.97 191.38C374.158 191.536 374.376 191.614 374.626 191.614C374.97 191.614 375.47 191.427 376.126 191.052C377.22 190.427 378.517 189.395 380.017 187.958C381.548 186.489 382.892 184.817 384.048 182.942H385.97C385.064 184.63 383.72 186.567 381.939 188.755C380.189 190.942 378.189 192.692 375.939 194.005C374.251 195.005 372.751 195.505 371.439 195.505C370.439 195.505 369.704 195.286 369.236 194.848C368.767 194.442 368.533 193.895 368.533 193.208C368.533 190.802 370.298 186.27 373.829 179.614L381.376 165.364C382.158 163.895 382.704 162.739 383.017 161.895C383.204 161.364 383.298 161.005 383.298 160.817C383.298 160.661 383.22 160.38 383.064 159.973ZM402.378 160.302H399.659L398.347 160.255L395.3 160.348H394.691C394.753 159.661 395.019 158.864 395.487 157.958C399.987 157.833 402.659 157.723 403.503 157.63C404.128 156.13 404.659 154.927 405.097 154.02C406.034 151.989 407.003 149.583 408.003 146.802C408.316 145.895 408.659 145.067 409.034 144.317C409.722 144.223 410.519 144.177 411.425 144.177C412.175 144.177 412.894 144.255 413.581 144.411L413.675 145.161C413.675 145.755 412.269 149.192 409.456 155.473C409.144 156.192 408.878 156.927 408.659 157.677C409.566 157.833 410.097 157.911 410.253 157.911H411.237L412.831 157.958L417.331 157.864C417.331 158.895 417.144 159.739 416.769 160.395C415.519 160.52 413.878 160.583 411.847 160.583C410.847 160.583 410.206 160.598 409.925 160.63C408.331 160.786 407.409 160.942 407.159 161.098L399.378 179.286C398.566 181.067 397.128 184.458 395.066 189.458C395.066 189.645 395.159 189.864 395.347 190.114L395.956 190.208C396.8 190.208 397.847 189.677 399.097 188.614C401.878 186.27 404.503 183.536 406.972 180.411C407.503 180.692 407.972 181.02 408.378 181.395C405.222 185.177 403.003 187.677 401.722 188.895C400.441 190.083 398.816 191.333 396.847 192.645C394.878 193.927 393.691 194.645 393.284 194.802C392.566 195.083 391.831 195.223 391.081 195.223C390.3 195.223 389.722 195.052 389.347 194.708C388.972 194.395 388.784 193.927 388.784 193.302C388.784 192.395 389.55 190.286 391.081 186.973L393.097 182.614L400.175 165.973C401.081 163.817 401.816 161.927 402.378 160.302ZM427.083 138.927C427.083 137.833 427.505 136.864 428.349 136.02C429.193 135.145 430.177 134.708 431.302 134.708C432.364 134.708 433.271 135.083 434.021 135.833C434.771 136.583 435.146 137.442 435.146 138.411C435.146 139.661 434.677 140.802 433.739 141.833C433.177 142.427 432.146 142.723 430.646 142.723C429.646 142.723 428.802 142.38 428.114 141.692C427.427 141.005 427.083 140.083 427.083 138.927ZM425.255 159.973C424.599 159.973 424.114 160.02 423.802 160.114C422.333 160.895 421.255 161.567 420.568 162.13C419.161 163.223 417.833 164.505 416.583 165.973L413.864 166.583C416.271 163.333 418.943 160.786 421.88 158.942C424.818 157.098 427.13 156.177 428.818 156.177C429.536 156.177 430.068 156.364 430.411 156.739C430.786 157.083 430.974 157.536 430.974 158.098C430.974 159.63 430.099 162.177 428.349 165.739C428.13 166.177 427.614 167.302 426.802 169.114C424.927 173.208 422.927 177.083 420.802 180.739C420.114 181.927 419.364 183.333 418.552 184.958C418.114 185.833 417.724 186.567 417.38 187.161C416.411 188.786 415.927 189.989 415.927 190.77C415.927 190.989 416.005 191.192 416.161 191.38C416.349 191.536 416.568 191.614 416.818 191.614C417.161 191.614 417.661 191.427 418.318 191.052C419.411 190.427 420.708 189.395 422.208 187.958C423.739 186.489 425.083 184.817 426.239 182.942H428.161C427.255 184.63 425.911 186.567 424.13 188.755C422.38 190.942 420.38 192.692 418.13 194.005C416.443 195.005 414.943 195.505 413.63 195.505C412.63 195.505 411.896 195.286 411.427 194.848C410.958 194.442 410.724 193.895 410.724 193.208C410.724 190.802 412.489 186.27 416.021 179.614L423.568 165.364C424.349 163.895 424.896 162.739 425.208 161.895C425.396 161.364 425.489 161.005 425.489 160.817C425.489 160.661 425.411 160.38 425.255 159.973ZM461.351 167.755C461.351 175.005 459.147 181.442 454.741 187.067C450.366 192.692 445.819 195.505 441.101 195.505C438.569 195.505 436.522 194.567 434.96 192.692C433.397 190.786 432.616 187.817 432.616 183.786C432.616 181.067 433.226 177.942 434.444 174.411C435.663 170.848 437.241 167.895 439.179 165.552C439.616 165.02 440.116 164.38 440.679 163.63C442.335 161.473 444.304 159.661 446.585 158.192C448.866 156.723 451.194 155.989 453.569 155.989C455.757 155.989 457.601 156.911 459.101 158.755C460.601 160.567 461.351 163.567 461.351 167.755ZM436.976 189.083C436.976 190.52 437.304 191.583 437.96 192.27C438.647 192.958 439.741 193.302 441.241 193.302C442.71 193.302 444.194 192.583 445.694 191.145C448.382 188.52 451.069 184.005 453.757 177.598C456.444 171.192 457.788 166.145 457.788 162.458C457.788 161.145 457.46 160.114 456.804 159.364C456.147 158.583 455.397 158.192 454.554 158.192C452.71 158.192 450.788 159.27 448.788 161.427C445.382 165.052 442.444 170.052 439.976 176.427C437.976 181.614 436.976 185.833 436.976 189.083ZM476.353 161.895C476.29 161.645 476.196 161.473 476.071 161.38C475.978 161.286 475.853 161.239 475.696 161.239C474.071 161.239 471.54 163.802 468.103 168.927C467.759 168.958 467.509 168.973 467.353 168.973C467.165 168.973 466.853 168.958 466.415 168.927C467.071 167.614 468.134 165.958 469.603 163.958C471.103 161.958 472.681 160.302 474.337 158.989C476.024 157.645 477.618 156.645 479.118 155.989C479.618 155.77 480.071 155.661 480.478 155.661C480.634 155.661 480.868 155.677 481.181 155.708C481.743 156.27 482.024 156.848 482.024 157.442C482.024 157.817 481.978 158.192 481.884 158.567C481.821 158.942 481.665 159.52 481.415 160.302C480.478 162.989 479.79 164.88 479.353 165.973L476.681 172.911C476.056 174.505 475.446 176.192 474.853 177.973C475.103 177.661 475.321 177.364 475.509 177.083C478.415 172.833 481.54 168.77 484.884 164.895C488.259 160.989 491.04 158.38 493.228 157.067C494.79 156.098 496.274 155.614 497.681 155.614C498.743 155.614 499.571 155.911 500.165 156.505C500.759 157.067 501.056 157.802 501.056 158.708C501.056 159.27 500.993 159.817 500.868 160.348C500.649 161.536 500.165 163.192 499.415 165.317C498.665 167.442 496.696 172.052 493.509 179.145L488.821 189.973L488.634 190.583C488.634 190.77 488.743 191.052 488.962 191.427C490.712 191.052 493.337 188.27 496.837 183.083L498.759 183.13C497.79 184.88 496.196 187.13 493.978 189.88C492.259 191.973 490.415 193.598 488.446 194.755C487.353 195.411 486.181 195.739 484.931 195.739C484.181 195.739 483.618 195.583 483.243 195.27C482.868 194.958 482.681 194.614 482.681 194.239C482.681 192.583 483.478 190.02 485.071 186.552L491.868 171.692L494.493 165.458C495.087 164.083 495.446 163.13 495.571 162.598C495.696 162.067 495.759 161.536 495.759 161.005C495.759 160.598 495.649 160.286 495.431 160.067C495.212 159.817 494.931 159.692 494.587 159.692C494.087 159.692 493.509 159.895 492.853 160.302C490.54 161.677 487.993 164.036 485.212 167.38C481.212 172.192 478.556 175.645 477.243 177.739C473.962 182.927 471.103 188.223 468.665 193.63C468.29 194.505 467.837 195.145 467.306 195.552C466.649 195.645 466.149 195.692 465.806 195.692C465.399 195.692 464.774 195.614 463.931 195.458C463.806 195.208 463.743 195.005 463.743 194.848C463.743 194.598 463.899 194.036 464.212 193.161C464.899 191.13 466.587 186.848 469.274 180.317L470.353 177.786L476.353 161.895ZM534.104 160.442C534.417 159.911 534.62 159.489 534.714 159.177C535.089 158.239 535.464 157.63 535.839 157.348C536.714 157.255 537.354 157.208 537.761 157.208C538.292 157.208 538.807 157.317 539.307 157.536L539.448 158.098C539.448 158.286 539.37 158.567 539.214 158.942C539.12 159.13 538.917 159.723 538.604 160.723L538.229 161.661L535.136 170.052C533.823 173.833 532.667 176.848 531.667 179.098C530.698 181.348 529.854 183.645 529.136 185.989C528.417 188.302 527.761 189.958 527.167 190.958L526.979 191.427C526.979 191.614 527.151 191.864 527.495 192.177C528.901 191.395 530.089 190.552 531.057 189.645C533.557 187.302 535.042 185.848 535.511 185.286C535.854 184.88 536.182 184.505 536.495 184.161C536.87 184.473 537.214 184.802 537.526 185.145C536.651 186.364 535.182 188.02 533.12 190.114C531.057 192.208 529.198 193.692 527.542 194.567C526.261 195.223 525.057 195.552 523.932 195.552C523.214 195.552 522.667 195.395 522.292 195.083C521.948 194.77 521.776 194.364 521.776 193.864C521.776 193.427 521.932 192.614 522.245 191.427C523.026 189.364 523.573 188.005 523.886 187.348C524.198 186.692 524.62 185.677 525.151 184.302C525.464 183.458 526.104 181.989 527.073 179.895C526.479 180.489 525.745 181.364 524.87 182.52C522.339 185.708 519.432 188.723 516.151 191.567C515.401 192.223 513.589 193.27 510.714 194.708C509.651 195.114 508.401 195.38 506.964 195.505C505.745 195.473 504.932 195.348 504.526 195.13C503.776 194.723 503.167 194.083 502.698 193.208C502.354 192.552 502.182 191.536 502.182 190.161C502.182 188.161 502.62 185.942 503.495 183.505C504.995 179.348 506.511 176.27 508.042 174.27C510.667 170.802 513.261 168.052 515.823 166.02C518.417 163.989 520.792 162.505 522.948 161.567C525.792 160.317 528.261 159.692 530.354 159.692C531.042 159.692 531.698 159.755 532.323 159.88C532.948 160.005 533.542 160.192 534.104 160.442ZM511.792 191.192C512.542 191.005 513.198 190.739 513.761 190.395C514.104 190.208 515.323 189.348 517.417 187.817C521.229 183.973 523.386 181.77 523.886 181.208C524.979 179.989 526.214 178.317 527.589 176.192C527.964 175.661 528.761 174.192 529.979 171.786L531.198 168.552C531.636 166.645 531.854 165.552 531.854 165.27C531.854 164.395 531.495 163.567 530.776 162.786C530.307 162.317 529.542 162.083 528.479 162.083C527.261 162.083 526.214 162.286 525.339 162.692C523.37 163.63 521.573 164.817 519.948 166.255C517.761 168.223 515.651 170.755 513.62 173.848C511.589 176.911 510.151 179.473 509.307 181.536C508.151 184.38 507.573 186.505 507.573 187.911C507.573 189.067 507.807 189.927 508.276 190.489C508.745 191.052 509.339 191.333 510.057 191.333C510.307 191.333 510.886 191.286 511.792 191.192ZM556.888 133.723L557.028 132.411C560.841 132.13 563.731 131.989 565.7 131.989H567.763V132.645L566.309 137.192C566.247 137.317 565.106 140.208 562.888 145.864L556.559 162.364C555.434 165.458 553.559 170.239 550.934 176.708L549.388 180.786C548.294 183.755 547.419 185.755 546.763 186.786C545.731 188.473 545.216 189.723 545.216 190.536L545.403 191.286C546.434 191.192 547.763 190.489 549.388 189.177C551.763 187.333 553.919 184.973 555.856 182.098C556.481 181.973 556.966 181.911 557.309 181.911L557.872 181.958C556.653 184.239 555.341 186.098 553.934 187.536C551.716 189.786 550.184 191.208 549.341 191.802C547.466 193.177 545.669 194.223 543.95 194.942C542.856 195.411 541.778 195.645 540.716 195.645C540.153 195.645 539.731 195.505 539.45 195.223C539.169 194.942 539.028 194.583 539.028 194.145C539.028 192.677 541.528 186.223 546.528 174.786C548.059 171.317 549.653 167.348 551.309 162.88C554.216 155.067 556.45 149.505 558.013 146.192C559.575 142.88 560.716 139.895 561.434 137.239C561.497 136.958 561.528 136.723 561.528 136.536C561.528 136.067 561.309 135.63 560.872 135.223C560.309 134.723 558.981 134.223 556.888 133.723ZM18.584 315.38V255.38H0.0560001V243.86H49.976V255.38H31.736V315.38H18.584ZM65.0885 316.532C61.4405 316.532 58.2725 315.924 55.5845 314.708C52.8965 313.492 50.8165 311.764 49.3445 309.524C47.8725 307.22 47.1365 304.564 47.1365 301.556C47.1365 298.676 47.7765 296.116 49.0565 293.876C50.3365 291.572 52.3205 289.652 55.0085 288.116C57.6965 286.58 61.0885 285.492 65.1845 284.852L82.2725 282.068V291.668L67.5845 294.164C65.0885 294.612 63.2325 295.412 62.0165 296.564C60.8005 297.716 60.1925 299.22 60.1925 301.076C60.1925 302.868 60.8645 304.308 62.2085 305.396C63.6165 306.42 65.3445 306.932 67.3925 306.932C70.0165 306.932 72.3205 306.388 74.3045 305.3C76.3525 304.148 77.9205 302.58 79.0085 300.596C80.1605 298.612 80.7365 296.436 80.7365 294.068V280.628C80.7365 278.388 79.8405 276.532 78.0485 275.06C76.3205 273.524 74.0165 272.756 71.1365 272.756C68.4485 272.756 66.0485 273.492 63.9365 274.964C61.8885 276.372 60.3845 278.26 59.4245 280.628L49.1525 275.636C50.1765 272.884 51.7765 270.516 53.9525 268.532C56.1925 266.484 58.8165 264.884 61.8245 263.732C64.8325 262.58 68.0965 262.004 71.6165 262.004C75.9045 262.004 79.6805 262.804 82.9445 264.404C86.2085 265.94 88.7365 268.116 90.5285 270.932C92.3845 273.684 93.3125 276.916 93.3125 280.628V315.38H81.4085V306.452L84.0965 306.26C82.7525 308.5 81.1525 310.388 79.2965 311.924C77.4405 313.396 75.3285 314.548 72.9605 315.38C70.5925 316.148 67.9685 316.532 65.0885 316.532ZM122.888 316.532C117.32 316.532 112.456 315.22 108.296 312.596C104.2 309.908 101.384 306.292 99.848 301.748L109.256 297.236C110.6 300.18 112.456 302.484 114.824 304.148C117.256 305.812 119.944 306.644 122.888 306.644C125.192 306.644 127.016 306.132 128.36 305.108C129.704 304.084 130.376 302.74 130.376 301.076C130.376 300.052 130.088 299.22 129.512 298.58C129 297.876 128.264 297.3 127.304 296.852C126.408 296.34 125.416 295.924 124.328 295.604L115.784 293.204C111.368 291.924 108.008 289.972 105.704 287.348C103.464 284.724 102.344 281.62 102.344 278.036C102.344 274.836 103.144 272.052 104.744 269.684C106.408 267.252 108.68 265.364 111.56 264.02C114.504 262.676 117.864 262.004 121.64 262.004C126.568 262.004 130.92 263.188 134.696 265.556C138.472 267.924 141.16 271.252 142.76 275.54L133.16 280.052C132.264 277.684 130.76 275.796 128.648 274.388C126.536 272.98 124.168 272.276 121.544 272.276C119.432 272.276 117.768 272.756 116.552 273.716C115.336 274.676 114.728 275.924 114.728 277.46C114.728 278.42 114.984 279.252 115.496 279.956C116.008 280.66 116.712 281.236 117.608 281.684C118.568 282.132 119.656 282.548 120.872 282.932L129.224 285.428C133.512 286.708 136.808 288.628 139.112 291.188C141.48 293.748 142.664 296.884 142.664 300.596C142.664 303.732 141.832 306.516 140.168 308.948C138.504 311.316 136.2 313.172 133.256 314.516C130.312 315.86 126.856 316.532 122.888 316.532ZM174.217 315.956C168.329 315.956 163.753 314.356 160.489 311.156C157.289 307.892 155.689 303.316 155.689 297.428V274.388H146.665V263.156H147.625C150.185 263.156 152.169 262.484 153.577 261.14C154.985 259.796 155.689 257.844 155.689 255.284V251.252H168.265V263.156H180.265V274.388H168.265V296.756C168.265 298.484 168.553 299.956 169.129 301.172C169.769 302.388 170.729 303.316 172.009 303.956C173.353 304.596 175.049 304.916 177.097 304.916C177.545 304.916 178.057 304.884 178.633 304.82C179.273 304.756 179.881 304.692 180.457 304.628V315.38C179.561 315.508 178.537 315.636 177.385 315.764C176.233 315.892 175.177 315.956 174.217 315.956ZM212.444 316.532C207.068 316.532 202.364 315.316 198.332 312.884C194.3 310.452 191.164 307.156 188.924 302.996C186.684 298.836 185.564 294.228 185.564 289.172C185.564 283.924 186.684 279.284 188.924 275.252C191.228 271.156 194.332 267.924 198.236 265.556C202.204 263.188 206.62 262.004 211.484 262.004C215.58 262.004 219.164 262.676 222.236 264.02C225.372 265.364 228.028 267.22 230.204 269.588C232.38 271.956 234.044 274.676 235.196 277.748C236.348 280.756 236.924 284.02 236.924 287.54C236.924 288.436 236.86 289.364 236.732 290.324C236.668 291.284 236.508 292.116 236.252 292.82H195.932V283.22H229.148L223.196 287.732C223.772 284.788 223.612 282.164 222.716 279.86C221.884 277.556 220.476 275.732 218.492 274.388C216.572 273.044 214.236 272.372 211.484 272.372C208.86 272.372 206.524 273.044 204.476 274.388C202.428 275.668 200.86 277.588 199.772 280.148C198.748 282.644 198.364 285.684 198.62 289.268C198.364 292.468 198.78 295.316 199.868 297.812C201.02 300.244 202.684 302.132 204.86 303.476C207.1 304.82 209.66 305.492 212.54 305.492C215.42 305.492 217.852 304.884 219.836 303.668C221.884 302.452 223.484 300.82 224.636 298.772L234.812 303.764C233.788 306.26 232.188 308.468 230.012 310.388C227.836 312.308 225.244 313.812 222.236 314.9C219.292 315.988 216.028 316.532 212.444 316.532Z" fill="#001542"/>
</svg>
