<svg width="535" height="508" viewBox="0 0 535 508" fill="none" xmlns="http://www.w3.org/2000/svg">
<g style="mix-blend-mode:multiply">
<path fill-rule="evenodd" clip-rule="evenodd" d="M269.714 1.13346C351.421 -1.67353 427.674 40.0521 477.972 102.262C527.603 163.647 545.304 243.402 526.884 319.208C508.603 394.447 456.801 459.49 383.576 490.754C312.993 520.89 234.163 505.478 164.179 474.067C92.7032 441.987 22.6335 395.022 5.04592 320.86C-12.5514 246.657 30.0229 175.431 79.2529 115.96C128.411 56.5752 191.009 3.83732 269.714 1.13346Z" fill="#FFB30D"/>
<path fill-rule="evenodd" clip-rule="evenodd" d="M269.714 1.13346C351.421 -1.67353 427.674 40.0521 477.972 102.262C527.603 163.647 545.304 243.402 526.884 319.208C508.603 394.447 456.801 459.49 383.576 490.754C312.993 520.89 234.163 505.478 164.179 474.067C92.7032 441.987 22.6335 395.022 5.04592 320.86C-12.5514 246.657 30.0229 175.431 79.2529 115.96C128.411 56.5752 191.009 3.83732 269.714 1.13346Z" stroke="#001542" stroke-width="2"/>
</g>
</svg>
