<svg width="282" height="268" viewBox="0 0 282 268" fill="none" xmlns="http://www.w3.org/2000/svg">
<g style="mix-blend-mode:multiply">
<path fill-rule="evenodd" clip-rule="evenodd" d="M142.163 1.07016C185.086 -0.40545 225.144 21.5294 251.567 54.2327C277.639 86.5022 286.938 128.429 277.262 168.279C267.658 207.832 240.445 242.025 201.978 258.46C164.899 274.302 123.487 266.2 86.7224 249.687C49.1743 232.823 12.3647 208.134 3.12544 169.148C-6.11892 130.14 16.2466 92.697 42.1085 61.4335C67.9328 30.2154 100.817 2.49155 142.163 1.07016Z" fill="#FFB30D"/>
<path fill-rule="evenodd" clip-rule="evenodd" d="M142.163 1.07016C185.086 -0.40545 225.144 21.5294 251.567 54.2327C277.639 86.5022 286.938 128.429 277.262 168.279C267.658 207.832 240.445 242.025 201.978 258.46C164.899 274.302 123.487 266.2 86.7224 249.687C49.1743 232.823 12.3647 208.134 3.12544 169.148C-6.11892 130.14 16.2466 92.697 42.1085 61.4335C67.9328 30.2154 100.817 2.49155 142.163 1.07016Z" stroke="#001542" stroke-width="2"/>
</g>
</svg>
