<svg width="623" height="591" viewBox="0 0 623 591" fill="none" xmlns="http://www.w3.org/2000/svg">
<g style="mix-blend-mode:multiply">
<path fill-rule="evenodd" clip-rule="evenodd" d="M314.584 1.15535C409.934 -2.11207 498.919 46.4579 557.616 118.873C615.534 190.326 636.191 283.163 614.696 371.404C593.362 458.985 532.911 534.697 447.458 571.089C365.089 606.168 273.096 588.228 191.426 551.665C108.016 514.323 26.2459 459.654 5.72151 373.327C-14.8142 286.953 34.8692 204.043 92.3196 134.817C149.687 65.6913 222.737 4.30273 314.584 1.15535Z" fill="#FFB30D"/>
<path fill-rule="evenodd" clip-rule="evenodd" d="M314.584 1.15535C409.934 -2.11207 498.919 46.4579 557.616 118.873C615.534 190.326 636.191 283.163 614.696 371.404C593.362 458.985 532.911 534.697 447.458 571.089C365.089 606.168 273.096 588.228 191.426 551.665C108.016 514.323 26.2459 459.654 5.72151 373.327C-14.8142 286.953 34.8692 204.043 92.3196 134.817C149.687 65.6913 222.737 4.30273 314.584 1.15535Z" stroke="#001542" stroke-width="2"/>
</g>
</svg>
